<svg xmlns="http://www.w3.org/2000/svg" viewBox="0 0 100 100" fill="none">
  <!-- Hexagonal geometric frame -->
  <polygon points="50,4 88,26 88,74 50,96 12,74 12,26"
    stroke="#1a3a5c" stroke-width="2.5" fill="none" opacity="0.7"/>
  <polygon points="50,12 81,29.5 81,70.5 50,88 19,70.5 19,29.5"
    stroke="#81B64C" stroke-width="1.5" fill="none" opacity="0.5"/>

  <!-- Bishop piece -->
  <!-- Head circle -->
  <circle cx="50" cy="22" r="5" fill="#1a3a5c"/>
  <!-- Head line -->
  <line x1="50" y1="26" x2="50" y2="30" stroke="#1a3a5c" stroke-width="2"/>
  <!-- Upper body -->
  <path d="M42 30 Q50 35 58 30 Q56 42 50 44 Q44 42 42 30Z"
    fill="#1a3a5c"/>
  <!-- Collar -->
  <rect x="43" y="44" width="14" height="3" rx="1.5" fill="#81B64C"/>
  <!-- Body -->
  <path d="M40 47 Q38 62 36 70 L64 70 Q62 62 60 47Z"
    fill="#1a3a5c"/>
  <!-- Base platform -->
  <rect x="33" y="70" width="34" height="4" rx="2" fill="#1a3a5c"/>
  <!-- Base bottom -->
  <rect x="29" y="74" width="42" height="5" rx="2.5" fill="#81B64C"/>

  <!-- Diamond chess pattern at bottom -->
  <path d="M38 80 L50 86 L62 80 L50 74Z"
    fill="none" stroke="#1a3a5c" stroke-width="1.5" opacity="0.6"/>

  <!-- Decorative lines on body -->
  <line x1="44" y1="54" x2="56" y2="54" stroke="#81B64C" stroke-width="1" opacity="0.6"/>
  <line x1="42" y1="60" x2="58" y2="60" stroke="#81B64C" stroke-width="1" opacity="0.6"/>
</svg>
