<svg xmlns="http://www.w3.org/2000/svg" viewBox="0 0 320 90">

  <!-- ── Icona alfiere (cerchio scuro + pezzo) ────────────────── -->
  <circle cx="45" cy="45" r="42" fill="#262421"/>
  <circle cx="45" cy="45" r="42" fill="none" stroke="#81B64C" stroke-width="2.5"/>

  <!-- Alfiere scalato per centrare nel cerchio (45×45 → ~1.5×, centrato su 45,45) -->
  <g transform="translate(10,5) scale(1.55)" fill="#81B64C" stroke="none">
    <path d="M9,36 C12.39,35.03 19.11,36.43 22.5,34
             C25.89,36.43 32.61,35.03 36,36
             C36,36 37.65,36.54 39,38
             C38.32,38.97 37.35,38.99 36,38.5
             C32.61,37.53 25.89,38.96 22.5,37.5
             C19.11,38.96 12.39,37.53 9,38.5
             C7.65,38.99 6.68,38.97 6,38
             C7.35,36.54 9,36 9,36z"/>
    <path d="M15,32 C17.5,34.5 27.5,34.5 30,32
             C30.5,30.5 30,30 30,30
             C30,27.5 27.5,26 27.5,26
             C33,24.5 33.5,14.5 22.5,10.5
             C11.5,14.5 12,24.5 17.5,26
             C17.5,26 15,27.5 15,30
             C15,30 14.5,30.5 15,32z"/>
    <circle cx="22.5" cy="8" r="2.75"/>
  </g>
  <g transform="translate(10,5) scale(1.55)"
     stroke="rgba(129,182,76,0.55)" stroke-width="1.2"
     fill="none" stroke-linecap="round">
    <line x1="17.5" y1="26" x2="27.5" y2="26"/>
    <line x1="15"   y1="30" x2="30"   y2="30"/>
    <line x1="22.5" y1="15.5" x2="22.5" y2="20.5"/>
    <line x1="19.8" y1="18"   x2="25.2" y2="18"/>
  </g>

  <!-- ── Testo ─────────────────────────────────────────────────── -->
  <text x="100" y="38"
    font-family="'Inter', 'Segoe UI', system-ui, sans-serif"
    font-size="30" font-weight="800" letter-spacing="-0.5"
    fill="#E2E0D5">Chess</text>

  <text x="100" y="38"
    font-family="'Inter', 'Segoe UI', system-ui, sans-serif"
    font-size="30" font-weight="800" letter-spacing="-0.5"
    fill="#81B64C" dx="74">Clone</text>

  <text x="101" y="62"
    font-family="'Inter', 'Segoe UI', system-ui, sans-serif"
    font-size="13" font-weight="400" letter-spacing="0.5"
    fill="#6E6D6A">Gioca agli scacchi online</text>

</svg>
