<svg xmlns="http://www.w3.org/2000/svg" viewBox="0 0 45 45">
<g fill="#000" stroke="#000" stroke-width="1.5" stroke-linecap="round" stroke-linejoin="round">
  <path d="M22,10 C32.5,11 38.5,18 38,39 L15,39 C15,30 25,32.5 23,18"/>
  <path d="M24,18 C24.38,20.91 18.45,25.37 16,27 C13,29 13.18,31.34 11,31
    C9.958,30.06 12.41,27.96 11,28 C10,28 11.19,29.23 10,30
    C9,30 5.997,31 6,26 C6,24 12,14 12,14
    C12,14 13.89,12.1 14,10.5 C13.27,9.506 13.5,8.5 13.5,7.5
    C14.5,6.5 16.5,10 16.5,10 L18.5,10
    C18.5,10 19.28,8.008 21,7 C22,7 22,10 22,10"/>
  <circle cx="9"    cy="25.5" r="0.5" fill="#fff" stroke="#fff"/>
  <circle cx="14.5" cy="15.5" r="0.5" fill="#fff" stroke="#fff"/>
</g>
</svg>