<svg xmlns="http://www.w3.org/2000/svg" viewBox="0 0 45 45">
<g fill="#000" stroke="#000" stroke-width="1.5" stroke-linejoin="round">
  <circle cx="6"    cy="12" r="2.75" fill="#fff" stroke="#fff"/>
  <circle cx="14"   cy="9"  r="2.75" fill="#fff" stroke="#fff"/>
  <circle cx="22.5" cy="8"  r="2.75" fill="#fff" stroke="#fff"/>
  <circle cx="31"   cy="9"  r="2.75" fill="#fff" stroke="#fff"/>
  <circle cx="39"   cy="12" r="2.75" fill="#fff" stroke="#fff"/>
  <path d="M9,26 C17.5,24.5 30,24.5 36,26 L38.5,13.5 L31,25 L30.7,10.9
    L25.5,24.5 L22.5,10 L19.5,24.5 L14.3,10.9 L14,25 L6.5,13.5 L9,26 z"
    stroke-linecap="butt"/>
  <path d="M9,26 C9,28 10.5,28 11.5,30 C12.5,31.5 12.5,31 12,33.5
    C10.5,34.5 11,36 11,36 C9.5,37.5 11,38.5 11,38.5
    C17.5,39.5 27.5,39.5 34,38.5
    C34,38.5 35.5,37.5 34,36 C34,36 34.5,34.5 33,33.5
    C32.5,31 32.5,31.5 33.5,30 C34.5,28 36,28 36,26
    C27.5,24.5 17.5,24.5 9,26 z"
    stroke-linecap="butt"/>
  <path d="M11.5,30 C15,29 30,29 33.5,30" fill="none" stroke="#fff"/>
  <path d="M12,33.5 C15,32.5 30,32.5 33,33.5" fill="none" stroke="#fff"/>
</g>
</svg>