<svg xmlns="http://www.w3.org/2000/svg" viewBox="0 0 45 45">
<g fill="none" stroke="#000" stroke-width="1.5" stroke-linecap="round" stroke-linejoin="round">
  <g fill="#fff" stroke="#000" stroke-linecap="butt">
    <path d="M9,36 C12.39,35.03 19.11,36.43 22.5,34 C25.89,36.43 32.61,35.03 36,36
      C36,36 37.65,36.54 39,38 C38.32,38.97 37.35,38.99 36,38.5
      C32.61,37.53 25.89,38.96 22.5,37.5 C19.11,38.96 12.39,37.53 9,38.5
      C7.65,38.99 6.68,38.97 6,38 C7.35,36.54 9,36 9,36 z"/>
    <path d="M15,32 C17.5,34.5 27.5,34.5 30,32 C30.5,30.5 30,30 30,30
      C30,27.5 27.5,26 27.5,26 C33,24.5 33.5,14.5 22.5,10.5
      C11.5,14.5 12,24.5 17.5,26 C17.5,26 15,27.5 15,30
      C15,30 14.5,30.5 15,32 z"/>
    <path d="M25,8 A2.5,2.5,0,1,1,20,8 A2.5,2.5,0,1,1,25,8 z"/>
  </g>
  <path d="M17.5,26 L27.5,26 M15,30 L30,30 M22.5,15.5 L22.5,20.5 M20,18 L25,18" fill="none"/>
</g>
</svg>