<svg xmlns="http://www.w3.org/2000/svg" viewBox="0 0 45 45">
<g fill="#fff" stroke="#000" stroke-width="1.5" stroke-linecap="round" stroke-linejoin="round">
  <path d="M22.5,11.63 L22.5,6"   stroke-linejoin="miter"/>
  <path d="M20,8 L25,8"           stroke-linejoin="miter"/>
  <path d="M22.5,25
    C22.5,25 27,17.5 25.5,14.5
    C25.5,14.5 24.5,12 22.5,12
    C20.5,12 19.5,14.5 19.5,14.5
    C18,17.5 22.5,25 22.5,25"
    fill="#fff" stroke-linecap="butt" stroke-linejoin="miter"/>
  <path d="M12.5,37
    C18,40.5 27,40.5 32.5,37
    L32.5,30
    C32.5,30 41.5,25.5 38.5,19.5
    C34.5,13 25,16 22.5,23.5
    L22.5,27 L22.5,23.5
    C20,16 10.5,13 6.5,19.5
    C3.5,25.5 12.5,30 12.5,30
    L12.5,37"
    fill="#fff"/>
  <path d="M12.5,30 C18,27 27,27 32.5,30"   fill="none"/>
  <path d="M12.5,33.5 C18,30.5 27,30.5 32.5,33.5" fill="none"/>
  <path d="M12.5,37 C18,34.5 27,34.5 32.5,37"     fill="none"/>
</g>
</svg>