<svg xmlns="http://www.w3.org/2000/svg" viewBox="0 0 45 45">
<path d="M22,9 C19.79,9 18,10.79 18,13 C18,13.89 18.29,14.71 18.78,15.38
  C16.83,16.5 15.5,18.59 15.5,21 C15.5,23.03 16.44,24.84 17.91,26.03
  C14.91,27.09 10.5,31.58 10.5,39.5 L33.5,39.5
  C33.5,31.58 29.09,27.09 26.09,26.03 C27.56,24.84 28.5,23.03 28.5,21
  C28.5,18.59 27.17,16.5 25.22,15.38 C25.71,14.71 26,13.89 26,13
  C26,10.79 24.21,9 22,9 z"
  fill="#fff" stroke="#000" stroke-width="1.5" stroke-linecap="round"/>
<path d="M9,39 L36,39" fill="none" stroke="#000" stroke-width="1.5" stroke-linecap="round"/>
</svg>