<svg xmlns="http://www.w3.org/2000/svg" viewBox="0 0 45 45">
<g fill="#fff" stroke="#000" stroke-width="1.5" stroke-linecap="round" stroke-linejoin="round">
  <path d="M9,39 L36,39 L36,36 L9,36 L9,39 z" stroke-linecap="butt"/>
  <path d="M12.5,32 L14,29.5 L31,29.5 L32.5,32 L12.5,32 z" stroke-linecap="butt"/>
  <path d="M12,36 L12,32 L33,32 L33,36 L12,36 z" stroke-linecap="butt"/>
  <path d="M14,29.5 L14,16.5 L31,16.5 L31,29.5 L14,29.5 z" stroke-linecap="butt" stroke-linejoin="miter"/>
  <path d="M14,16.5 L11,14 L34,14 L31,16.5 L14,16.5 z" stroke-linecap="butt"/>
  <path d="M11,14 L11,9 L15,9 L15,11 L20,11 L20,9 L25,9 L25,11 L30,11 L30,9 L34,9 L34,14 z" stroke-linecap="butt"/>
</g>
</svg>